<svg id="Chart" xmlns="http://www.w3.org/2000/svg" width="312" height="60" viewBox="0 0 312 60">
  <g id="Bar_Chart" data-name="Bar Chart" transform="translate(0 32)">
    <rect id="Rectangle" width="4" height="28" rx="2" fill="#e7edf3"/>
    <rect id="Rectangle-2" data-name="Rectangle" width="4" height="14.875" rx="2" transform="translate(0 13.125)" fill="#00cfdd"/>
  </g>
  <g id="Bar_Chart-2" data-name="Bar Chart" transform="translate(19 23)">
    <rect id="Rectangle-3" data-name="Rectangle" width="4" height="37" rx="2" transform="translate(0)" fill="#e7edf3"/>
    <rect id="Rectangle-4" data-name="Rectangle" width="4" height="19.791" rx="2" transform="translate(0 17.209)" fill="#00cfdd"/>
  </g>
  <g id="Bar_Chart-3" data-name="Bar Chart" transform="translate(37 28)">
    <rect id="Rectangle-5" data-name="Rectangle" width="4" height="32" rx="2" fill="#e7edf3"/>
    <rect id="Rectangle-6" data-name="Rectangle" width="4" height="27.676" rx="2" transform="translate(0 4.324)" fill="#00cfdd"/>
  </g>
  <g id="Bar_Chart-4" data-name="Bar Chart" transform="translate(55 23)">
    <rect id="Rectangle-7" data-name="Rectangle" width="4" height="37" rx="2" fill="#e7edf3"/>
    <rect id="Rectangle-8" data-name="Rectangle" width="4" height="32.595" rx="2" transform="translate(0 4.405)" fill="#00cfdd"/>
  </g>
  <g id="Bar_Chart-5" data-name="Bar Chart" transform="translate(73 17)">
    <rect id="Rectangle-9" data-name="Rectangle" width="4" height="43" rx="2" transform="translate(0)" fill="#e7edf3"/>
    <rect id="Rectangle-10" data-name="Rectangle" width="4" height="36.857" rx="2" transform="translate(0 6.143)" fill="#00cfdd"/>
  </g>
  <g id="Bar_Chart-6" data-name="Bar Chart" transform="translate(91)">
    <rect id="Rectangle-11" data-name="Rectangle" width="4" height="60" rx="2" transform="translate(0)" fill="#e7edf3"/>
    <rect id="Rectangle-12" data-name="Rectangle" width="4" height="31.304" rx="2" transform="translate(0 28.696)" fill="#00cfdd"/>
  </g>
  <g id="Bar_Chart-7" data-name="Bar Chart" transform="translate(110 12)">
    <rect id="Rectangle-13" data-name="Rectangle" width="4" height="48" rx="2" fill="#e7edf3"/>
    <rect id="Rectangle-14" data-name="Rectangle" width="4" height="20.073" rx="2" transform="translate(0 27.927)" fill="#00cfdd"/>
  </g>
  <g id="Bar_Chart-8" data-name="Bar Chart" transform="translate(128 23)">
    <rect id="Rectangle-15" data-name="Rectangle" width="4" height="37" rx="2" transform="translate(0)" fill="#e7edf3"/>
    <rect id="Rectangle-16" data-name="Rectangle" width="4" height="27.31" rx="2" transform="translate(0 9.69)" fill="#00cfdd"/>
  </g>
  <g id="Bar_Chart-9" data-name="Bar Chart" transform="translate(146 17)">
    <rect id="Rectangle-17" data-name="Rectangle" width="4" height="43" rx="2" fill="#e7edf3"/>
    <rect id="Rectangle-18" data-name="Rectangle" width="4" height="32.68" rx="2" transform="translate(0 10.32)" fill="#00cfdd"/>
  </g>
  <g id="Bar_Chart-10" data-name="Bar Chart" transform="translate(164 23)">
    <rect id="Rectangle-19" data-name="Rectangle" width="4" height="37" rx="2" transform="translate(0)" fill="#00cfdd"/>
  </g>
  <g id="Bar_Chart-11" data-name="Bar Chart" transform="translate(182 29)">
    <rect id="Rectangle-20" data-name="Rectangle" width="4" height="31" rx="2" transform="translate(0)" fill="#e7edf3"/>
    <rect id="Rectangle-21" data-name="Rectangle" width="4" height="15.5" rx="2" transform="translate(0 15.5)" fill="#00cfdd"/>
  </g>
  <g id="Bar_Chart-12" data-name="Bar Chart" transform="translate(200 18)">
    <rect id="Rectangle-22" data-name="Rectangle" width="4" height="42" rx="2" transform="translate(0)" fill="#e7edf3"/>
    <rect id="Rectangle-23" data-name="Rectangle" width="4" height="27.125" rx="2" transform="translate(0 14.875)" fill="#00cfdd"/>
  </g>
  <g id="Bar_Chart-13" data-name="Bar Chart" transform="translate(218 9)">
    <rect id="Rectangle-24" data-name="Rectangle" width="4" height="51" rx="2" fill="#e7edf3"/>
    <rect id="Rectangle-25" data-name="Rectangle" width="4" height="11.237" rx="2" transform="translate(0 39.763)" fill="#00cfdd"/>
  </g>
  <g id="Bar_Chart-14" data-name="Bar Chart" transform="translate(236 17)">
    <rect id="Rectangle-26" data-name="Rectangle" width="4" height="43" rx="2" fill="#e7edf3"/>
    <rect id="Rectangle-27" data-name="Rectangle" width="4" height="30.96" rx="2" transform="translate(0 12.04)" fill="#00cfdd"/>
  </g>
  <g id="Bar_Chart-15" data-name="Bar Chart" transform="translate(254 23)">
    <rect id="Rectangle-28" data-name="Rectangle" width="4" height="37" rx="2" fill="#e7edf3"/>
    <rect id="Rectangle-29" data-name="Rectangle" width="4" height="30.977" rx="2" transform="translate(0 6.023)" fill="#00cfdd"/>
  </g>
  <g id="Bar_Chart-16" data-name="Bar Chart" transform="translate(272 29)">
    <rect id="Rectangle-30" data-name="Rectangle" width="4" height="31" rx="2" transform="translate(0)" fill="#e7edf3"/>
    <rect id="Rectangle-31" data-name="Rectangle" width="4" height="27.556" rx="2" transform="translate(0 3.444)" fill="#00cfdd"/>
  </g>
  <g id="Bar_Chart-17" data-name="Bar Chart" transform="translate(290 28)">
    <rect id="Rectangle-32" data-name="Rectangle" width="4" height="32" rx="2" fill="#e7edf3"/>
    <rect id="Rectangle-33" data-name="Rectangle" width="4" height="28.541" rx="2" transform="translate(0 3.459)" fill="#00cfdd"/>
  </g>
  <g id="Bar_Chart-18" data-name="Bar Chart" transform="translate(308 37)">
    <rect id="Rectangle-34" data-name="Rectangle" width="4" height="23" rx="2" fill="#00cfdd"/>
  </g>
</svg>
